<svg width="16" height="21" viewBox="0 0 16 21" fill="none" xmlns="http://www.w3.org/2000/svg">
<path d="M5.84888 0.487518L4.91138 1.47716H0.223877V3.45645H1.16138V18.3011C1.16138 18.8179 1.34075 19.3448 1.69421 19.7179C2.04768 20.091 2.54679 20.2804 3.03638 20.2804H12.4114C12.901 20.2804 13.4001 20.091 13.7535 19.7179C14.107 19.3448 14.2864 18.8179 14.2864 18.3011V3.45645H15.2239V1.47716H10.5364L9.59888 0.487518H5.84888ZM3.03638 3.45645H12.4114V18.3011H3.03638V3.45645ZM4.91138 5.43573V16.3218H6.78638V5.43573H4.91138ZM8.66138 5.43573V16.3218H10.5364V5.43573H8.66138Z" fill="#DCDCDC" fill-opacity="0.7"/>
</svg>
